<svg viewBox="0 0 644 240" fill="none" xmlns="http://www.w3.org/2000/svg">
<g clip-path="url(#clip0_41_76)">
<path d="M303 157.913H286.8C273.66 157.913 266.05 150.303 266.05 137.653V78.7335H283.24V128.693C283.24 137.043 285.33 141.463 297.97 141.463H303V157.913Z" fill="black"/>
<path d="M355.67 157.913H300.31V141.463H311.6C317.37 141.463 320.32 137.534 320.32 129.684V102.314H337.63V129.073C337.63 133.613 336.89 137.663 335.54 141.473H355.67V157.923V157.913ZM336.27 92.9735H320.92V78.8535H336.27V92.9735Z" fill="black"/>
<path d="M442.34 157.913H350.89V141.463H369.18C367.58 138.143 366.85 134.583 366.85 130.783C366.85 115.933 377.53 106.353 392.87 106.353C408.21 106.353 418.77 115.433 418.77 130.783C418.77 134.583 418.03 138.143 416.56 141.463H428.47L428.72 135.203C428.47 116.793 418.78 102.303 400 100.343L401.47 83.7735C414.6 85.0035 428.97 93.3435 436.46 104.153C442.48 112.623 445.42 122.933 445.42 135.083C445.42 142.083 444.44 149.693 442.35 157.913H442.34ZM402.44 130.663C402.44 124.643 398.88 120.233 392.86 120.233C386.84 120.233 383.41 124.653 383.41 130.663C383.41 136.673 387.34 141.583 392.86 141.583C398.38 141.583 402.44 136.793 402.44 130.663Z" fill="black"/>
<path d="M575.9 157.913H550.73C543.98 170.683 531.58 178.293 517.22 178.293C495.61 178.293 478.43 160.123 478.43 136.553V102.303H495.74V134.953C495.74 151.163 503.96 162.333 517.34 162.333C530.72 162.333 538.82 150.793 538.82 134.953V102.303H556.01V141.463H575.9V157.913Z" fill="black"/>
<path d="M525.69 90.8035H510.47V104.923H525.69V90.8035Z" fill="black"/>
<path d="M643.79 140.483C643.79 156.933 632.74 168.473 615.56 168.473C605.13 168.473 597.27 164.913 592.24 157.913H570.14V141.463H587.2C587.2 123.913 597.27 112.733 614.94 112.733C632.61 112.733 643.79 123.663 643.79 140.473V140.483ZM626.72 141.093C626.72 131.393 623.04 126.483 615.79 126.483H614.56C608.3 126.483 604 132.253 604 140.353C604 148.453 608.17 154.473 615.54 154.473C622.29 154.473 626.71 149.073 626.71 141.093H626.72Z" fill="black"/>
<path d="M560.4 97.5635C560.26 97.7535 560.17 97.8934 560.06 98.0234C558.8 99.5534 557.54 101.083 556.3 102.633C555.97 103.043 555.79 103.073 555.39 102.693C542.83 90.6734 530.26 78.6634 517.69 66.6434C517.07 66.0504 516.45 66.0464 515.83 66.6334C503.32 78.5834 490.8 90.5335 478.3 102.483C477.8 102.963 477.52 103.113 477.02 102.443C475.91 100.973 474.73 99.5635 473.52 98.1735C473.08 97.6635 473.13 97.3834 473.6 96.9434C478.02 92.7534 482.42 88.5434 486.82 84.3434C496.49 75.1134 506.16 65.8834 515.82 56.6534C516.75 55.7734 516.75 55.7635 517.71 56.6835C528.79 67.2635 539.86 77.8535 550.94 88.4335C553.91 91.2735 556.88 94.1034 559.85 96.9434C560.05 97.1334 560.22 97.3435 560.42 97.5535L560.4 97.5635Z" fill="#F36A24"/>
<path d="M486.03 79.4534C486.03 77.5534 486.03 75.7134 486.03 73.8834C486.03 70.1534 486.04 66.4135 486.03 62.6835C486.03 62.1035 486.18 61.8934 486.78 61.9034C489.98 61.9334 493.17 61.9234 496.37 61.9034C496.92 61.9034 497.11 62.0635 497.09 62.6235C497.03 64.5735 497 66.5235 496.98 68.4735C496.98 68.8035 496.91 69.0535 496.66 69.3035C493.21 72.6535 489.78 76.0135 486.33 79.3735C486.3 79.4035 486.23 79.4034 486.04 79.4534H486.03Z" fill="#F36A24"/>
<g filter="url(#filter0_d_41_76)">
<path d="M52.1123 45.9611C52.1123 45.9611 -22.3175 122.984 52.4739 200.624L55.7802 200.545C55.7802 200.545 -11.6995 122.791 94.0266 40.3886C94.0266 40.3886 76.3723 40.306 47.7727 67.4556L52.1088 45.9611H52.1123Z" fill="#F7AB31"/>
</g>
<g filter="url(#filter1_d_41_76)">
<path d="M205.749 113.947C205.749 113.947 213.539 85.3234 215.21 74.02C215.21 74.02 170.437 67.5589 133.744 98.0217C133.744 98.0217 124.052 107.507 118.049 117.649C118.049 117.649 90.6204 174.721 154.184 199.143C154.184 199.143 189.052 179.257 205.749 113.944V113.947Z" fill="url(#paint0_linear_41_76)"/>
</g>
<g filter="url(#filter2_d_41_76)">
<path d="M11.7202 142.381C11.7202 142.381 11.7202 142.364 11.7236 142.354C11.4171 144.035 13.4491 147.513 14.1207 149.29C14.7613 150.985 15.4191 152.672 16.101 154.35C17.8506 158.672 19.7276 162.942 21.7355 167.151C26.6881 177.532 32.4156 187.633 39.4174 196.777C45.5306 204.764 52.7632 212.265 61.6075 217.224C63.0644 218.041 63.5741 218.802 63.6327 220.455C63.7015 222.456 59.3896 222.132 56.9374 221.206C44.7695 216.608 33.3834 209.42 24.9592 199.408C15.4432 188.095 11.0486 173.991 10.5113 159.333C10.3047 153.661 10.7042 147.968 11.7167 142.381H11.7202Z" fill="#196E97"/>
</g>
<path d="M137.918 169.782V127.489H143.149V145.113H164.768V127.489H169.999V169.782H164.768V152.159H143.149V167.688L137.918 169.782Z" fill="white"/>
<g filter="url(#filter3_d_41_76)">
<path d="M154.36 197.307C151.009 199.295 150.017 199.284 147.451 196.436C146.094 194.928 145.691 194.897 143.938 192.682C141.517 189.62 140.587 188.535 138.903 186.376C136.933 183.851 134.501 180.714 136.399 177.618C138.393 174.363 141.896 171.966 144.823 169.631C151.629 164.203 159.006 159.619 166.114 154.625C166.18 154.58 166.245 154.532 166.311 154.487C176.519 147.193 193.14 132.232 200.672 108.285C200.8 107.882 201.375 107.913 201.447 108.326C203.824 121.831 201.389 136.478 196.539 149.146C193.188 157.907 188.429 166.09 182.632 173.457C179.212 177.8 175.438 181.861 171.394 185.629C166.951 189.772 162.977 192.892 157.501 195.537" fill="#F36A24"/>
</g>
<g filter="url(#filter4_d_41_76)">
<path d="M137.918 65.1618C137.918 65.1618 67.0595 102.192 155.104 199.281C154.921 199.081 148.867 201.458 148.409 201.592C142.75 203.242 136.909 204.313 131.026 204.747C116.038 205.849 100.756 202.412 88.709 193.157C85.3476 190.574 82.2686 187.633 79.4995 184.427C72.8043 176.674 67.9171 167.489 64.2733 157.918C63.0438 154.687 61.9417 151.364 61.704 147.916C61.4491 144.224 62.2 140.532 63.2091 136.974C70.3762 111.774 91.2576 93.2689 112.539 79.4857C120.698 74.2025 129.211 69.4773 137.918 65.1653V65.1618Z" fill="url(#paint1_linear_41_76)"/>
</g>
<g filter="url(#filter5_d_41_76)">
<path d="M7.19467 136.299C11.1682 136.299 14.3893 133.078 14.3893 129.104C14.3893 125.131 11.1682 121.91 7.19467 121.91C3.22117 121.91 0 125.131 0 129.104C0 133.078 3.22117 136.299 7.19467 136.299Z" fill="#E76C1E"/>
</g>
<g filter="url(#filter6_d_41_76)">
<path d="M68.4302 46.7877C72.5941 46.7877 75.9693 43.4125 75.9693 39.2486C75.9693 35.0848 72.5941 31.7096 68.4302 31.7096C64.2667 31.7096 60.8912 35.0848 60.8912 39.2486C60.8912 43.4125 64.2667 46.7877 68.4302 46.7877Z" fill="#1B7C9E"/>
</g>
<g filter="url(#filter7_d_41_76)">
<path d="M94.9462 33.8897C97.0843 33.8897 98.8173 32.1565 98.8173 30.0185C98.8173 27.8805 97.0843 26.1474 94.9462 26.1474C92.8081 26.1474 91.075 27.8805 91.075 30.0185C91.075 32.1565 92.8081 33.8897 94.9462 33.8897Z" fill="#F2A61F"/>
</g>
<g filter="url(#filter8_d_41_76)">
<path d="M54.5851 231.882C56.7955 231.882 58.5871 230.091 58.5871 227.88C58.5871 225.67 56.7955 223.878 54.5851 223.878C52.3747 223.878 50.5831 225.67 50.5831 227.88C50.5831 230.091 52.3747 231.882 54.5851 231.882Z" fill="#E76C1E"/>
</g>
<g filter="url(#filter9_d_41_76)">
<path d="M171.653 0C170.265 0.261749 168.57 1.61183 167.275 2.31442C165.684 3.17543 164.082 4.02612 162.478 4.85959C147.702 12.5468 132.066 18.3879 117.305 26.0888C115.38 27.0945 113.468 28.1312 111.584 29.2126C99.513 36.1386 88.4093 44.5491 77.7913 53.5174C71.7814 58.5974 65.9333 63.9495 60.7603 69.8906C60.7603 69.8906 38.1431 91.1233 33.2973 132.666C33.2973 132.666 31.2205 166.359 44.8349 186.438C44.8349 186.438 55.4496 213.901 96.069 229.365C96.069 229.365 132.766 241.598 167.151 227.288C167.151 227.288 210.078 214.593 226 168.901C226 168.901 191.153 191.979 177.766 194.749C177.766 194.749 210.536 170.055 215.616 126.205C215.616 126.205 194.201 169.355 165.818 189.799C165.612 189.947 165.553 190.003 165.367 190.147C163.073 191.945 145.557 208.731 115.452 203.748C110.737 202.97 106.064 201.265 101.7 199.377C91.9223 195.158 82.9608 188.845 76.2931 180.483C68.8918 171.194 63.891 158.909 64.1493 146.931C64.3112 139.416 66.4293 131.719 69.0433 124.71C72.8146 114.588 78.115 105.303 85.2787 97.2296C92.5767 89.0017 100.849 81.7244 109.074 74.4505C118.097 66.4706 127.093 58.4597 135.948 50.2938C144.472 42.431 154.033 34.6921 160.776 25.2244C164.355 20.1995 167.089 14.7062 168.952 8.8306C169.882 5.89281 170.63 2.91024 171.646 0.00344407L171.653 0Z" fill="#13B1CE"/>
</g>
<path d="M113.944 133.058C113.944 133.058 121.445 166.421 154.36 198.702L171.398 187.02C171.398 187.02 126.239 161.741 113.944 133.058Z" fill="url(#paint2_linear_41_76)"/>
<path d="M92.1427 159.819L93.1587 127.61H97.946L110.665 143.16L123.336 127.61H127.83L127.661 164.468L124.135 157.656V135.721L110.665 152.187L97.147 135.769L95.8658 155.235L92.1427 159.819Z" fill="white"/>
<path d="M47.7383 67.5176C46.2401 69.9319 1.27085 143.583 52.2948 200.421C52.4119 200.548 52.5772 200.621 52.7494 200.617C53.2316 200.607 53.4933 200.052 53.204 199.67C46.2298 190.543 -6.68154 114.898 94.0301 40.3886C94.0301 40.3886 74.4023 41.2669 47.8313 67.4039C47.7968 67.4384 47.7658 67.4762 47.7417 67.5176H47.7383Z" fill="#E76C1E"/>
<path d="M166.269 15.7635C161.555 17.8334 156.943 20.1685 152.373 22.5414C141.479 28.1966 130.858 34.3994 120.642 41.2049C108.784 49.109 97.6808 57.857 87.4967 67.8138C77.3745 77.712 69.8355 89.1429 62.9198 101.445C55.7527 114.195 50.2111 126.57 49.9528 141.393C49.7083 155.452 52.5738 169.648 58.9453 182.229C71.3577 206.744 97.5844 224.116 125.536 221.499C128.481 221.223 131.409 220.734 134.281 220.028C142.578 217.989 150.348 214.256 157.618 209.823C161.331 207.557 164.926 205.105 168.46 202.567C171.828 200.145 174.673 197.48 177.769 194.745C177.769 194.745 213.863 162.887 215.62 126.201C215.62 126.201 180.735 196.157 135.879 203.934C135.879 203.934 83.2605 211.714 65.5855 159.047C65.5855 159.047 51.9917 127.413 101.817 80.9081C101.817 80.9081 163.686 30.0151 166.269 15.7601V15.7635Z" fill="url(#paint3_linear_41_76)"/>
</g>
<defs>
<filter id="filter0_d_41_76" x="18.2341" y="39.4834" width="80.9221" height="166.27" filterUnits="userSpaceOnUse" color-interpolation-filters="sRGB">
<feFlood flood-opacity="0" result="BackgroundImageFix"/>
<feColorMatrix in="SourceAlpha" type="matrix" values="0 0 0 0 0 0 0 0 0 0 0 0 0 0 0 0 0 0 127 0" result="hardAlpha"/>
<feOffset dx="2.11216" dy="2.11216"/>
<feGaussianBlur stdDeviation="1.50869"/>
<feColorMatrix type="matrix" values="0 0 0 0 0 0 0 0 0 0 0 0 0 0 0 0 0 0 0.4 0"/>
<feBlend mode="normal" in2="BackgroundImageFix" result="effect1_dropShadow_41_76"/>
<feBlend mode="normal" in="SourceGraphic" in2="effect1_dropShadow_41_76" result="shape"/>
</filter>
<filter id="filter1_d_41_76" x="111.258" y="72.5416" width="109.082" height="131.731" filterUnits="userSpaceOnUse" color-interpolation-filters="sRGB">
<feFlood flood-opacity="0" result="BackgroundImageFix"/>
<feColorMatrix in="SourceAlpha" type="matrix" values="0 0 0 0 0 0 0 0 0 0 0 0 0 0 0 0 0 0 127 0" result="hardAlpha"/>
<feOffset dx="2.11216" dy="2.11216"/>
<feGaussianBlur stdDeviation="1.50869"/>
<feColorMatrix type="matrix" values="0 0 0 0 0 0 0 0 0 0 0 0 0 0 0 0 0 0 0.4 0"/>
<feBlend mode="normal" in2="BackgroundImageFix" result="effect1_dropShadow_41_76"/>
<feBlend mode="normal" in="SourceGraphic" in2="effect1_dropShadow_41_76" result="shape"/>
</filter>
<filter id="filter2_d_41_76" x="9.55331" y="141.449" width="59.2097" height="85.6148" filterUnits="userSpaceOnUse" color-interpolation-filters="sRGB">
<feFlood flood-opacity="0" result="BackgroundImageFix"/>
<feColorMatrix in="SourceAlpha" type="matrix" values="0 0 0 0 0 0 0 0 0 0 0 0 0 0 0 0 0 0 127 0" result="hardAlpha"/>
<feOffset dx="2.11216" dy="2.11216"/>
<feGaussianBlur stdDeviation="1.50869"/>
<feColorMatrix type="matrix" values="0 0 0 0 0 0 0 0 0 0 0 0 0 0 0 0 0 0 0.4 0"/>
<feBlend mode="normal" in2="BackgroundImageFix" result="effect1_dropShadow_41_76"/>
<feBlend mode="normal" in="SourceGraphic" in2="effect1_dropShadow_41_76" result="shape"/>
</filter>
<filter id="filter3_d_41_76" x="134.807" y="107.094" width="72.6901" height="96.736" filterUnits="userSpaceOnUse" color-interpolation-filters="sRGB">
<feFlood flood-opacity="0" result="BackgroundImageFix"/>
<feColorMatrix in="SourceAlpha" type="matrix" values="0 0 0 0 0 0 0 0 0 0 0 0 0 0 0 0 0 0 127 0" result="hardAlpha"/>
<feOffset dx="2.11216" dy="2.11216"/>
<feGaussianBlur stdDeviation="1.50869"/>
<feColorMatrix type="matrix" values="0 0 0 0 0 0 0 0 0 0 0 0 0 0 0 0 0 0 0.5 0"/>
<feBlend mode="normal" in2="BackgroundImageFix" result="effect1_dropShadow_41_76"/>
<feBlend mode="normal" in="SourceGraphic" in2="effect1_dropShadow_41_76" result="shape"/>
</filter>
<filter id="filter4_d_41_76" x="60.7487" y="64.2566" width="99.4849" height="145.818" filterUnits="userSpaceOnUse" color-interpolation-filters="sRGB">
<feFlood flood-opacity="0" result="BackgroundImageFix"/>
<feColorMatrix in="SourceAlpha" type="matrix" values="0 0 0 0 0 0 0 0 0 0 0 0 0 0 0 0 0 0 127 0" result="hardAlpha"/>
<feOffset dx="2.11216" dy="2.11216"/>
<feGaussianBlur stdDeviation="1.50869"/>
<feColorMatrix type="matrix" values="0 0 0 0 0 0 0 0 0 0 0 0 0 0 0 0 0 0 0.5 0"/>
<feBlend mode="normal" in2="BackgroundImageFix" result="effect1_dropShadow_41_76"/>
<feBlend mode="normal" in="SourceGraphic" in2="effect1_dropShadow_41_76" result="shape"/>
</filter>
<filter id="filter5_d_41_76" x="-0.90522" y="121.005" width="20.4241" height="20.4238" filterUnits="userSpaceOnUse" color-interpolation-filters="sRGB">
<feFlood flood-opacity="0" result="BackgroundImageFix"/>
<feColorMatrix in="SourceAlpha" type="matrix" values="0 0 0 0 0 0 0 0 0 0 0 0 0 0 0 0 0 0 127 0" result="hardAlpha"/>
<feOffset dx="2.11216" dy="2.11216"/>
<feGaussianBlur stdDeviation="1.50869"/>
<feColorMatrix type="matrix" values="0 0 0 0 0 0 0 0 0 0 0 0 0 0 0 0 0 0 0.4 0"/>
<feBlend mode="normal" in2="BackgroundImageFix" result="effect1_dropShadow_41_76"/>
<feBlend mode="normal" in="SourceGraphic" in2="effect1_dropShadow_41_76" result="shape"/>
</filter>
<filter id="filter6_d_41_76" x="59.986" y="30.8044" width="21.1129" height="21.1129" filterUnits="userSpaceOnUse" color-interpolation-filters="sRGB">
<feFlood flood-opacity="0" result="BackgroundImageFix"/>
<feColorMatrix in="SourceAlpha" type="matrix" values="0 0 0 0 0 0 0 0 0 0 0 0 0 0 0 0 0 0 127 0" result="hardAlpha"/>
<feOffset dx="2.11216" dy="2.11216"/>
<feGaussianBlur stdDeviation="1.50869"/>
<feColorMatrix type="matrix" values="0 0 0 0 0 0 0 0 0 0 0 0 0 0 0 0 0 0 0.4 0"/>
<feBlend mode="normal" in2="BackgroundImageFix" result="effect1_dropShadow_41_76"/>
<feBlend mode="normal" in="SourceGraphic" in2="effect1_dropShadow_41_76" result="shape"/>
</filter>
<filter id="filter7_d_41_76" x="90.1698" y="25.2422" width="13.7771" height="13.7771" filterUnits="userSpaceOnUse" color-interpolation-filters="sRGB">
<feFlood flood-opacity="0" result="BackgroundImageFix"/>
<feColorMatrix in="SourceAlpha" type="matrix" values="0 0 0 0 0 0 0 0 0 0 0 0 0 0 0 0 0 0 127 0" result="hardAlpha"/>
<feOffset dx="2.11216" dy="2.11216"/>
<feGaussianBlur stdDeviation="1.50869"/>
<feColorMatrix type="matrix" values="0 0 0 0 0 0 0 0 0 0 0 0 0 0 0 0 0 0 0.4 0"/>
<feBlend mode="normal" in2="BackgroundImageFix" result="effect1_dropShadow_41_76"/>
<feBlend mode="normal" in="SourceGraphic" in2="effect1_dropShadow_41_76" result="shape"/>
</filter>
<filter id="filter8_d_41_76" x="49.6779" y="222.973" width="14.0388" height="14.0388" filterUnits="userSpaceOnUse" color-interpolation-filters="sRGB">
<feFlood flood-opacity="0" result="BackgroundImageFix"/>
<feColorMatrix in="SourceAlpha" type="matrix" values="0 0 0 0 0 0 0 0 0 0 0 0 0 0 0 0 0 0 127 0" result="hardAlpha"/>
<feOffset dx="2.11216" dy="2.11216"/>
<feGaussianBlur stdDeviation="1.50869"/>
<feColorMatrix type="matrix" values="0 0 0 0 0 0 0 0 0 0 0 0 0 0 0 0 0 0 0.4 0"/>
<feBlend mode="normal" in2="BackgroundImageFix" result="effect1_dropShadow_41_76"/>
<feBlend mode="normal" in="SourceGraphic" in2="effect1_dropShadow_41_76" result="shape"/>
</filter>
<filter id="filter9_d_41_76" x="32.2786" y="-0.90522" width="198.851" height="240.27" filterUnits="userSpaceOnUse" color-interpolation-filters="sRGB">
<feFlood flood-opacity="0" result="BackgroundImageFix"/>
<feColorMatrix in="SourceAlpha" type="matrix" values="0 0 0 0 0 0 0 0 0 0 0 0 0 0 0 0 0 0 127 0" result="hardAlpha"/>
<feOffset dx="2.11216" dy="2.11216"/>
<feGaussianBlur stdDeviation="1.50869"/>
<feColorMatrix type="matrix" values="0 0 0 0 0 0 0 0 0 0 0 0 0 0 0 0 0 0 0.4 0"/>
<feBlend mode="normal" in2="BackgroundImageFix" result="effect1_dropShadow_41_76"/>
<feBlend mode="normal" in="SourceGraphic" in2="effect1_dropShadow_41_76" result="shape"/>
</filter>
<linearGradient id="paint0_linear_41_76" x1="112.163" y1="136.299" x2="215.21" y2="136.299" gradientUnits="userSpaceOnUse">
<stop stop-color="#701747"/>
<stop offset="0.99" stop-color="#CC2F4E"/>
</linearGradient>
<linearGradient id="paint1_linear_41_76" x1="61.6523" y1="135.052" x2="155.104" y2="135.052" gradientUnits="userSpaceOnUse">
<stop offset="0.01" stop-color="#E76420"/>
<stop offset="0.99" stop-color="#ECA466"/>
</linearGradient>
<linearGradient id="paint2_linear_41_76" x1="113.944" y1="165.877" x2="171.398" y2="165.877" gradientUnits="userSpaceOnUse">
<stop stop-color="#701747"/>
<stop offset="0.99" stop-color="#CC2F4E"/>
</linearGradient>
<linearGradient id="paint3_linear_41_76" x1="132.783" y1="15.7635" x2="132.783" y2="221.76" gradientUnits="userSpaceOnUse">
<stop stop-color="#179CBF"/>
<stop offset="1" stop-color="#106288"/>
</linearGradient>
<clipPath id="clip0_41_76">
<rect width="644" height="240" fill="white"/>
</clipPath>
</defs>
</svg>
